HIERARCHY
ROOT Hips
{
	OFFSET 0.000000 0.000000 0.000000
	CHANNELS 6 Xposition Yposition Zposition Zrotation Yrotation Xrotation 
	JOINT LHipJoint
	{
		OFFSET 0.000000 0.000000 0.000000
		CHANNELS 3 Zrotation Yrotation Xrotation
		JOINT LeftUpLeg
		{
			OFFSET 1.363060 -1.794630 0.839290
			CHANNELS 3 Zrotation Yrotation Xrotation
			JOINT LeftLeg
			{
				OFFSET 2.448110 -6.726130 0.000000
				CHANNELS 3 Zrotation Yrotation Xrotation
				JOINT LeftFoot
				{
					OFFSET 2.562200 -7.039590 0.000000
					CHANNELS 3 Zrotation Yrotation Xrotation
					JOINT LeftToeBase
					{
						OFFSET 0.157640 -0.433110 2.322550
						CHANNELS 3 Zrotation Yrotation Xrotation
						End Site
						{
							OFFSET 0.000000 0.000000 0.000000
						}
					}
				}
			}
		}
	}
	JOINT RHipJoint
	{
		OFFSET 0.000000 0.000000 0.000000
		CHANNELS 3 Zrotation Yrotation Xrotation
		JOINT RightUpLeg
		{
			OFFSET -1.305520 -1.794630 0.839290
			CHANNELS 3 Zrotation Yrotation Xrotation
			JOINT RightLeg
			{
				OFFSET -2.542530 -6.985550 0.000000
				CHANNELS 3 Zrotation Yrotation Xrotation
				JOINT RightFoot
				{
					OFFSET -2.568260 -7.056230 0.000000
					CHANNELS 3 Zrotation Yrotation Xrotation
					JOINT RightToeBase
					{
						OFFSET -0.164730 -0.452590 2.363150
						CHANNELS 3 Zrotation Yrotation Xrotation
						End Site
						{
							OFFSET 0.000000 0.000000 0.000000
						}
					}
				}
			}
		}
	}
	JOINT LowerBack
	{
		OFFSET 0.000000 0.000000 0.000000
		CHANNELS 3 Zrotation Yrotation Xrotation
		JOINT Spine
		{
			OFFSET 0.028270 2.035590 -0.193380
			CHANNELS 3 Zrotation Yrotation Xrotation
			JOINT Spine1
			{
				OFFSET 0.056720 2.048850 -0.042750
				CHANNELS 3 Zrotation Yrotation Xrotation
				JOINT Neck
				{
					OFFSET 0.000000 0.000000 0.000000
					CHANNELS 3 Zrotation Yrotation Xrotation
					JOINT Neck1
					{
						OFFSET -0.054170 1.746240 0.172020
						CHANNELS 3 Zrotation Yrotation Xrotation
						JOINT Head
						{
							OFFSET 0.104070 1.761360 -0.123970
							CHANNELS 3 Zrotation Yrotation Xrotation
							End Site
							{
								OFFSET 0.000000 0.000000 0.000000
							}
						}
					}
				}
				JOINT LeftShoulder
				{
					OFFSET 0.000000 0.000000 0.000000
					CHANNELS 3 Zrotation Yrotation Xrotation
					JOINT LeftArm
					{
						OFFSET 3.362410 1.200890 -0.311210
						CHANNELS 3 Zrotation Yrotation Xrotation
						JOINT LeftForeArm
						{
							OFFSET 4.983000 -0.000000 -0.000000
							CHANNELS 3 Zrotation Yrotation Xrotation
							JOINT LeftHand
							{
								OFFSET 3.483560 -0.000000 -0.000000
								CHANNELS 3 Zrotation Yrotation Xrotation
								JOINT LeftFingerBase
								{
									OFFSET 0.000000 0.000000 0.000000
									CHANNELS 3 Zrotation Yrotation Xrotation
									JOINT LeftHandIndex1
									{
										OFFSET 0.715260 -0.000000 -0.000000
										CHANNELS 3 Zrotation Yrotation Xrotation
										End Site
										{
											OFFSET 0.000000 0.000000 0.000000
										}
									}
								}
								JOINT LThumb
								{
									OFFSET 0.000000 0.000000 0.000000
									CHANNELS 3 Zrotation Yrotation Xrotation
									End Site
									{
										OFFSET 0.000000 0.000000 0.000000
									}
								}
							}
						}
					}
				}
				JOINT RightShoulder
				{
					OFFSET 0.000000 0.000000 0.000000
					CHANNELS 3 Zrotation Yrotation Xrotation
					JOINT RightArm
					{
						OFFSET -3.136600 1.374050 -0.404650
						CHANNELS 3 Zrotation Yrotation Xrotation
						JOINT RightForeArm
						{
							OFFSET -5.241900 -0.000000 -0.000000
							CHANNELS 3 Zrotation Yrotation Xrotation
							JOINT RightHand
							{
								OFFSET -3.444170 -0.000000 -0.000000
								CHANNELS 3 Zrotation Yrotation Xrotation
								JOINT RightFingerBase
								{
									OFFSET 0.000000 0.000000 0.000000
									CHANNELS 3 Zrotation Yrotation Xrotation
									JOINT RightHandIndex1
									{
										OFFSET -0.622530 -0.000000 -0.000000
										CHANNELS 3 Zrotation Yrotation Xrotation
										End Site
										{
											OFFSET 0.000000 0.000000 0.000000
										}
									}
								}
								JOINT RThumb
								{
									OFFSET 0.000000 0.000000 0.000000
									CHANNELS 3 Zrotation Yrotation Xrotation
									End Site
									{
										OFFSET 0.000000 0.000000 0.000000
									}
								}
							}
						}
					}
				}
			}
		}
	}
}
MOTION
Frames: 10
Frame Time: 0.008333
12.443165 12.873471 2.899669 111.837232 -88.522439 -23.697120 -9.087584 -0.522605 3.511437 -2.952191 -18.022263 -135.870776 -0.952153 9.549239 76.545802 3.941260 4.964355 -30.565493 -2.633500 0.000000 -39.021400 10.092297 1.097216 4.682574 1.907416 10.791557 -137.825689 0.843538 -11.393636 77.938052 -2.383128 0.026549 -27.352187 1.062700 0.000000 -56.500400 1.643109 -2.239460 -1.297406 -0.667057 -2.416659 -2.787017 -4.493479 -2.649392 -0.813579 10.459677 -8.953311 -15.166848 -2.289653 -0.008081 -3.820931 0.000000 0.000000 0.000000 -6.260254 10.429508 5.621100 -64.138746 35.412120 -8.515792 0.256983 -9.449220 -0.006881 2.221386 -6.069198 -0.118981 0.021055 0.121758 0.000000 0.000000 0.000000 0.000000 0.000000 0.000000 0.000000 19.651729 -6.625512 5.562230 59.559780 -26.551205 -30.662906 -0.879441 1.102770 -0.016107 -3.284450 17.883203 -0.526628 0.001963 -0.305828 0.000000 0.000000 0.000000 0.000000 0.000000 0.000000 0.000000 
12.413806 12.859209 2.900210 111.878814 -88.518196 -23.587552 -9.099994 -0.510801 3.519892 -2.972207 -18.048503 -135.978258 -0.943184 9.578848 76.702306 3.956660 4.945293 -30.733037 -2.660000 0.000001 -39.083300 10.105657 1.096688 4.700440 1.888098 10.790653 -137.940268 0.826653 -11.415077 78.092864 -2.404244 0.024350 -27.526665 1.081000 0.000000 -56.536700 1.641167 -2.245774 -1.332494 -0.669212 -2.424799 -2.798984 -4.493774 -2.657992 -0.825584 10.482605 -9.031304 -15.182068 -2.280604 -0.006694 -3.828492 0.000000 0.000000 0.000000 -6.312006 10.454332 5.611996 -64.176165 35.329562 -8.284449 0.254109 -9.830030 -0.006912 2.135420 -6.025751 -0.113480 0.022587 0.123605 0.000000 0.000000 0.000000 0.000000 0.000000 0.000000 0.000000 19.675090 -6.702044 5.563873 59.595561 -26.350284 -30.545033 -0.879459 1.232783 -0.016035 -3.164324 17.854702 -0.506426 0.000405 -0.306914 0.000000 0.000000 0.000000 0.000000 0.000000 0.000000 0.000000 
12.383824 12.844280 2.900702 111.912025 -88.513553 -23.467557 -9.112960 -0.498452 3.528403 -2.994660 -18.074080 -136.092330 -0.933583 9.611279 76.869994 3.969028 4.913856 -30.901857 -2.683800 0.000000 -39.159000 10.119604 1.096858 4.719603 1.865465 10.787322 -138.062850 0.808469 -11.438196 78.258692 -2.424132 0.030127 -27.708869 1.098700 -0.000000 -56.555900 1.639402 -2.253199 -1.369894 -0.671588 -2.434211 -2.811679 -4.494939 -2.667940 -0.837537 10.510200 -9.118110 -15.201032 -2.271505 -0.005237 -3.837326 0.000000 0.000000 0.000000 -6.363894 10.482547 5.603154 -64.222945 35.232330 -8.082179 0.252967 -10.221682 -0.006954 2.058017 -5.986002 -0.108579 0.024085 0.125553 0.000000 0.000000 0.000000 0.000000 0.000000 0.000000 0.000000 19.705324 -6.787443 5.565984 59.628220 -26.130101 -30.428298 -0.879746 1.370058 -0.015945 -3.038782 17.807329 -0.484723 -0.001230 -0.307871 0.000000 0.000000 0.000000 0.000000 0.000000 0.000000 0.000000 
12.353072 12.828637 2.901142 111.928698 -88.508243 -23.327128 -9.126708 -0.485248 3.537390 -3.018787 -18.099901 -136.214464 -0.923403 9.646561 77.048372 3.977915 4.868929 -31.069676 -2.704300 0.000000 -39.255500 10.134420 1.097863 4.740147 1.840055 10.780625 -138.192162 0.788928 -11.462914 78.434848 -2.442158 0.044588 -27.895048 1.115099 0.000000 -56.563701 1.638355 -2.262026 -1.410155 -0.674059 -2.445230 -2.825213 -4.497085 -2.679594 -0.849509 10.542463 -9.214506 -15.224874 -2.262472 -0.003700 -3.847894 0.000000 0.000000 0.000000 -6.415469 10.514804 5.595214 -64.281349 35.116696 -7.917616 0.254115 -10.618754 -0.007010 1.989492 -5.947585 -0.104178 0.025560 0.127568 0.000000 0.000000 0.000000 0.000000 0.000000 0.000000 0.000000 19.743391 -6.882339 5.568710 59.657121 -25.887425 -30.311880 -0.880619 1.517799 -0.015846 -2.910893 17.736703 -0.462321 -0.002914 -0.308684 0.000000 0.000000 0.000000 0.000000 0.000000 0.000000 0.000000 
12.321532 12.812392 2.901576 111.923276 -88.502223 -23.161723 -9.141078 -0.471189 3.547022 -3.044895 -18.125994 -136.341093 -0.912577 9.683901 77.235595 3.983560 4.812155 -31.235135 -2.721401 -0.000000 -39.378500 10.150200 1.099806 4.762106 1.812379 10.769757 -138.326972 0.767867 -11.489104 78.620235 -2.458235 0.066271 -28.081443 1.130200 0.000000 -56.569600 1.638747 -2.272718 -1.453596 -0.676364 -2.458342 -2.839638 -4.500265 -2.693455 -0.861326 10.578522 -9.319381 -15.254460 -2.253695 -0.002088 -3.860505 0.000000 0.000000 0.000000 -6.466124 10.553086 5.588770 -64.352967 34.977380 -7.795746 0.257804 -11.015481 -0.007078 1.929259 -5.907251 -0.100278 0.027028 0.129602 0.000000 0.000000 0.000000 0.000000 0.000000 0.000000 0.000000 19.788634 -6.985626 5.572151 59.682526 -25.617535 -30.210487 -0.882639 1.674053 -0.015742 -2.779887 17.644910 -0.438920 -0.004677 -0.309364 0.000000 0.000000 0.000000 0.000000 0.000000 0.000000 0.000000 
12.289182 12.795672 2.901979 111.892444 -88.495568 -22.970285 -9.155816 -0.456253 3.557386 -3.072387 -18.153123 -136.471567 -0.900972 9.722846 77.430311 3.986735 4.746561 -31.398075 -2.735700 0.000000 -39.529100 10.166810 1.102353 4.785428 1.782805 10.755935 -138.468542 0.745197 -11.516851 78.813905 -2.472637 0.092974 -28.265267 1.144000 0.000000 -56.582800 1.641432 -2.285285 -1.500236 -0.678220 -2.473576 -2.855023 -4.504581 -2.709566 -0.872984 10.617620 -9.432101 -15.290411 -2.245309 -0.000408 -3.875356 0.000000 0.000000 0.000000 -6.515619 10.597666 5.584295 -64.439255 34.810281 -7.720773 0.263932 -11.406524 -0.007151 1.873364 -5.862844 -0.096579 0.028534 0.131608 0.000000 0.000000 0.000000 0.000000 0.000000 0.000000 0.000000 19.840273 -7.096381 5.576373 59.706713 -25.318286 -30.119700 -0.885839 1.842413 -0.015639 -2.652873 17.531738 -0.415918 -0.006429 -0.309923 0.000000 0.000000 0.000000 0.000000 0.000000 0.000000 0.000000 
12.255834 12.778493 2.902384 111.824470 -88.489208 -22.740619 -9.170823 -0.440638 3.568656 -3.100555 -18.180323 -136.602827 -0.888356 9.762406 77.630664 3.988920 4.677490 -31.559913 -2.748700 0.000000 -39.705200 10.183960 1.105578 4.809546 1.754187 10.739832 -138.609401 0.721061 -11.545130 79.013201 -2.486340 0.120619 -28.445993 1.157200 0.000000 -56.610500 1.647548 -2.299601 -1.549604 -0.679247 -2.490813 -2.871133 -4.510028 -2.727814 -0.884471 10.658201 -9.550228 -15.332683 -2.237619 0.001315 -3.892521 0.000000 0.000000 0.000000 -6.564141 10.649511 5.582227 -64.540047 34.608961 -7.691766 0.272735 -11.784686 -0.007224 1.820633 -5.810813 -0.092978 0.030104 0.133538 0.000000 0.000000 0.000000 0.000000 0.000000 0.000000 0.000000 19.897469 -7.211927 5.581364 59.731679 -24.986802 -30.055545 -0.890980 2.020320 -0.015551 -2.529975 17.405608 -0.393418 -0.008197 -0.310442 0.000000 0.000000 0.000000 0.000000 0.000000 0.000000 0.000000 
12.221447 12.760836 2.902774 111.738093 -88.482468 -22.490594 -9.186227 -0.424013 3.582247 -3.127595 -18.209736 -136.734374 -0.874645 9.801607 77.833436 3.992355 4.612633 -31.721891 -2.762500 -0.000000 -39.905200 10.201918 1.108703 4.835898 1.724516 10.722512 -138.751432 0.695413 -11.573483 79.215836 -2.500803 0.143880 -28.623281 1.170799 0.000000 -56.665400 1.657148 -2.315843 -1.604983 -0.679397 -2.510384 -2.889247 -4.516751 -2.748567 -0.895648 10.698903 -9.671472 -15.380446 -2.230816 0.003041 -3.911574 0.000000 0.000000 0.000000 -6.613035 10.707491 5.582620 -64.654643 34.372654 -7.715977 0.283476 -12.145391 -0.007287 1.759978 -5.754946 -0.088878 0.031848 0.135404 0.000000 0.000000 0.000000 0.000000 0.000000 0.000000 0.000000 19.958387 -7.330291 5.586646 59.761412 -24.626804 -29.992055 -0.897272 2.216262 -0.015488 -2.426455 17.266975 -0.374115 -0.009748 -0.310968 0.000000 0.000000 0.000000 0.000000 0.000000 0.000000 0.000000 
12.186448 12.743964 2.903370 111.605874 -88.482880 -22.213251 -9.198010 -0.412619 3.589154 -3.157799 -18.226604 -136.837996 -0.858057 9.836419 78.039599 3.998443 4.559329 -31.893113 -2.780200 0.000001 -40.102700 10.215639 1.114400 4.853492 1.710601 10.707250 -138.857880 0.669264 -11.598348 79.414564 -2.517073 0.157390 -28.799222 1.186100 0.000000 -56.781200 1.676279 -2.333071 -1.642388 -0.676390 -2.530268 -2.901391 -4.523389 -2.769519 -0.909536 10.732345 -9.789591 -15.431906 -2.223848 0.004882 -3.932762 0.000000 0.000000 0.000000 -6.663478 10.765636 5.586336 -64.795330 34.090302 -7.798473 0.296809 -12.492365 -0.007336 1.678539 -5.700508 -0.083878 0.034008 0.137342 0.000000 0.000000 0.000000 0.000000 0.000000 0.000000 0.000000 20.010317 -7.441090 5.593376 59.813534 -24.234112 -29.921296 -0.905967 2.444154 -0.015494 -2.353344 17.118268 -0.359515 -0.011017 -0.311569 0.000000 0.000000 0.000000 0.000000 0.000000 0.000000 0.000000 
12.149293 12.724899 2.903437 111.453692 -88.475267 -21.887209 -9.215839 -0.391277 3.614647 -3.173653 -18.263976 -136.979721 -0.841708 9.874093 78.243002 4.010708 4.521902 -32.062971 -2.801700 -0.000000 -40.334100 10.236295 1.114904 4.890739 1.673757 10.694297 -139.008343 0.640519 -11.626047 79.624290 -2.538569 0.159883 -28.985877 1.204900 0.000001 -56.842300 1.691330 -2.350505 -1.726529 -0.675513 -2.552737 -2.929044 -4.533979 -2.793751 -0.916512 10.775268 -9.913135 -15.489646 -2.220911 0.006355 -3.954480 0.000000 0.000000 0.000000 -6.713788 10.841057 5.591335 -64.917114 33.764850 -7.907524 0.311130 -12.777780 -0.007368 1.620635 -5.623019 -0.079778 0.035800 0.138731 0.000000 0.000000 0.000000 0.000000 0.000000 0.000000 0.000000 20.085985 -7.563300 5.597613 59.848770 -23.815858 -29.918272 -0.914963 2.648875 -0.015491 -2.278897 17.006423 -0.345616 -0.012253 -0.312509 0.000000 0.000000 0.000000 0.000000 0.000000 0.000000 0.000000 
